<?xml version="1.0" encoding="UTF-8"?>
<svg id="Layer_1" data-name="Layer 1" xmlns="http://www.w3.org/2000/svg" viewBox="0 0 2834.65 613.66">
  <defs>
    <style>
      .cls-1 {
        fill: none;
      }

      .cls-2 {
        fill: #0052CC;
      }

      .cls-3 {
        fill: #0c1a3d;
      }
    </style>
  </defs>
  <path class="cls-1" d="M316.97,95.09H95.09v383.55l103.64-103.64h118.07c77.31,0,140.04-62.72,140.04-140.03s-62.56-139.87-139.87-139.87Z"/>
  <path class="cls-3" d="M2775.27,382.56l.18.34c-29.69,0-46.28-14.42-46.28-39.08v-145.4h99.78v-86.7h-99.78V.19h-99.12v349.16c0,77.31,44.78,120.75,122.93,120.75h81.66v-87.54h-59.38Z"/>
  <path class="cls-3" d="M2397.27,103.16c-104.15,0-179.28,75.13-179.28,188s73.79,188,185.15,188c69.43,0,132.99-39.08,158.31-96.94l-78.15-32.54c-11.57,28.17-41.26,44.78-80.33,44.78-49.14,0-81.67-26-91.06-72.28h259.61v-33.21c0-111.36-70.1-185.82-174.25-185.82ZM2311.24,264.33c7.21-48.47,37.57-76.64,83.18-76.64,49.14,0,78.82,28.17,83.18,76.64h-166.37Z"/>
  <polygon class="cls-3" points="2097.24 111.88 2020.6 374.34 1943.29 111.88 1829.75 111.88 1954.86 470.6 2084.33 470.6 2209.44 111.88 2097.41 111.88 2097.24 111.88"/>
  <path class="cls-3" d="M1634.54,102.49c-113.54,0-190.18,75.13-190.18,188s76.64,188,190.18,188,189.51-75.13,189.51-188-75.97-188-189.51-188ZM1634.54,385.91c-53.5,0-88.88-38.24-88.88-95.43s35.39-95.42,88.88-95.42,88.21,38.4,88.21,95.42-34.71,95.43-88.21,95.43Z"/>
  <path class="cls-3" d="M1374.93,111.88c-43.44,0-78.15,26.83-88.21,67.25h-.67l-13.08-67.25h-86.03v358.72h99.11v-161.16c0-59.37,30.36-98.27,77.31-98.27h55.01v-99.12h-43.44v-.17Z"/>
  <path class="cls-3" d="M958.51,103.16c-51.99,0-94.75,25.99-106.32,64.4h-2.18l-13.08-55.68h-86.03v501.78h99.11v-198.06h2.18c11.57,37.57,54.17,63.56,106.32,63.56,98.28,0,163.35-75.14,163.35-188s-65.07-188-163.35-188ZM935.37,388.77c-51.32,0-85.36-39.08-85.36-97.61s34.04-98.28,85.36-98.28,85.36,39.75,85.36,98.28-34.05,97.61-85.36,97.61Z"/>
  <path class="cls-2" d="M316.97,0H0v613.14h95.09l143.05-143.05h78.65c129.81,0,234.96-105.15,234.96-234.96S446.77.17,316.97,0ZM316.8,374.99h-118.07l-103.64,103.64V95.09h221.88c77.31,0,139.87,62.72,139.87,139.87s-62.72,140.03-140.04,140.03Z"/>
</svg>